<svg xmlns="http://www.w3.org/2000/svg" width="48" height="48" viewBox="0 0 12.7 12.7"><path fill-rule="evenodd" d="M6.37 1.27a1.03 1.03 0 0 0-.71.28l-4.2 4c-.18.18-.23.35-.21.6.06.32.36.5.56.5a.21.21 0 0 1 .22.22v3.56a1 1 0 0 0 1 1H4.4a1 1 0 0 0 1-1V8a.2.2 0 0 1 .22-.22h1.5c.12 0 .2.1.2.21v2.44a1 1 0 0 0 1.01 1H9.7a1 1 0 0 0 1-1V6.87c-.02-.15.06-.19.16-.22.33-.04.43-.15.56-.4a.65.65 0 0 0-.15-.7l-4.19-4a1.03 1.03 0 0 0-.71-.28zm-.17.85a.24.24 0 0 1 .34 0l3.98 3.81a.95.95 0 0 0-.6.97v3.53a.2.2 0 0 1-.22.21H8.33a.2.2 0 0 1-.21-.21V8a1.01 1.01 0 0 0-1-1h-1.5a1.01 1.01 0 0 0-1 1v2.43a.2.2 0 0 1-.22.21H3.03a.2.2 0 0 1-.21-.21V6.87a.97.97 0 0 0-.62-.93z"/></svg>