<svg xmlns="http://www.w3.org/2000/svg" width="48" height="48" viewBox="0 0 12.7 12.7"><path fill-rule="evenodd" d="M6.06 1.24c-1.12.08-.93 1.01-1.54 1.32-.62.28-1.28-.44-1.99.39-.77.89.09 1.35-.16 2.01-.22.66-1.1.46-1.12 1.68.04 1.1 1 .92 1.31 1.54.29.64-.44 1.13.39 1.99.83.75 1.37-.08 2.01.16.66.25.51 1.13 1.68 1.12 1.1-.04.92-1 1.54-1.31.64-.29 1.13.44 1.99-.39.76-.88-.09-1.35.16-2.01.22-.66 1.1-.46 1.12-1.68-.02-1.07-1.02-.95-1.31-1.54-.28-.63.43-1.15-.39-1.99-.83-.75-1.37.08-2.01-.16-.7-.24-.47-1.13-1.68-1.13zm1.41 1.88c.95.33 1.25-.36 1.75.01.41.35-.21.85.21 1.73.43.89 1.11.64 1.23 1.24.04.6-.73.38-1.08 1.38-.35.93.36 1.24-.01 1.74-.33.41-.86-.21-1.73.21-.88.42-.64 1.12-1.24 1.23-.54.06-.44-.76-1.38-1.08-.96-.33-1.25.36-1.74-.01-.45-.37.24-.8-.21-1.73-.42-.88-1.12-.64-1.23-1.24-.04-.58.75-.42 1.08-1.37.34-.95-.36-1.25.01-1.75.34-.41.85.21 1.73-.21.89-.43.64-1.23 1.24-1.23.65 0 .36.72 1.37 1.08zm-1.12.99c-2.99 0-2.99 4.48 0 4.48s2.99-4.48 0-4.48zm0 .8c1.93 0 1.93 2.89 0 2.89s-1.93-2.89 0-2.89z"/></svg>